<mxfile host="app.diagrams.net" modified="2024-02-28T06:34:02.836Z" agent="Mozilla/5.0 (Windows NT 10.0; Win64; x64) AppleWebKit/537.36 (KHTML, like Gecko) Chrome/121.0.0.0 Safari/537.36 Edg/121.0.0.0" etag="k71Kays6H0bN79le1K5P" version="23.1.5" type="github">
  <diagram name="Page-1" id="IU_a-31U_m2ooqGbNCly">
    <mxGraphModel dx="746" dy="425" grid="1" gridSize="10" guides="1" tooltips="1" connect="1" arrows="1" fold="1" page="1" pageScale="1" pageWidth="850" pageHeight="1100" math="0" shadow="0">
      <root>
        <mxCell id="0" />
        <mxCell id="1" parent="0" />
        <mxCell id="lks8lBvvTtwoYbfCfUkM-1" value="" style="rounded=0;whiteSpace=wrap;html=1;fillColor=default;strokeColor=none;" vertex="1" parent="1">
          <mxGeometry x="90" y="70" width="640" height="360" as="geometry" />
        </mxCell>
        <mxCell id="lks8lBvvTtwoYbfCfUkM-2" value="" style="ellipse;whiteSpace=wrap;html=1;aspect=fixed;fillColor=#ffe6cc;strokeColor=#d79b00;" vertex="1" parent="1">
          <mxGeometry x="190" y="290" width="80" height="80" as="geometry" />
        </mxCell>
        <mxCell id="lks8lBvvTtwoYbfCfUkM-3" value="" style="ellipse;whiteSpace=wrap;html=1;aspect=fixed;fillColor=#ffe6cc;strokeColor=#d79b00;" vertex="1" parent="1">
          <mxGeometry x="340" y="140" width="80" height="80" as="geometry" />
        </mxCell>
        <mxCell id="lks8lBvvTtwoYbfCfUkM-4" value="" style="ellipse;whiteSpace=wrap;html=1;aspect=fixed;fillColor=#ffe6cc;strokeColor=#d79b00;" vertex="1" parent="1">
          <mxGeometry x="500" y="280" width="80" height="80" as="geometry" />
        </mxCell>
        <mxCell id="lks8lBvvTtwoYbfCfUkM-5" value="" style="endArrow=classic;html=1;rounded=0;" edge="1" parent="1">
          <mxGeometry width="50" height="50" relative="1" as="geometry">
            <mxPoint x="240" y="290" as="sourcePoint" />
            <mxPoint x="340" y="190" as="targetPoint" />
          </mxGeometry>
        </mxCell>
        <mxCell id="lks8lBvvTtwoYbfCfUkM-8" value="" style="endArrow=classic;html=1;rounded=0;exitX=0.983;exitY=0.7;exitDx=0;exitDy=0;exitPerimeter=0;" edge="1" parent="1" source="lks8lBvvTtwoYbfCfUkM-3" target="lks8lBvvTtwoYbfCfUkM-4">
          <mxGeometry width="50" height="50" relative="1" as="geometry">
            <mxPoint x="360" y="250" as="sourcePoint" />
            <mxPoint x="410" y="200" as="targetPoint" />
          </mxGeometry>
        </mxCell>
        <mxCell id="lks8lBvvTtwoYbfCfUkM-9" value="" style="endArrow=classic;html=1;rounded=0;entryX=0.281;entryY=0.722;entryDx=0;entryDy=0;entryPerimeter=0;" edge="1" parent="1" target="lks8lBvvTtwoYbfCfUkM-1">
          <mxGeometry width="50" height="50" relative="1" as="geometry">
            <mxPoint x="500" y="330" as="sourcePoint" />
            <mxPoint x="370" y="360" as="targetPoint" />
          </mxGeometry>
        </mxCell>
        <mxCell id="lks8lBvvTtwoYbfCfUkM-10" value="&lt;b&gt;&lt;font style=&quot;font-size: 14px;&quot;&gt;User&lt;/font&gt;&lt;/b&gt;" style="text;html=1;align=center;verticalAlign=middle;whiteSpace=wrap;rounded=0;" vertex="1" parent="1">
          <mxGeometry x="350" y="165" width="60" height="30" as="geometry" />
        </mxCell>
        <mxCell id="lks8lBvvTtwoYbfCfUkM-12" value="&lt;b&gt;&lt;font style=&quot;font-size: 14px;&quot;&gt;Issuer&lt;/font&gt;&lt;/b&gt;" style="text;html=1;align=center;verticalAlign=middle;whiteSpace=wrap;rounded=0;" vertex="1" parent="1">
          <mxGeometry x="200" y="315" width="60" height="30" as="geometry" />
        </mxCell>
        <mxCell id="lks8lBvvTtwoYbfCfUkM-14" value="&lt;b&gt;&lt;font style=&quot;font-size: 14px;&quot;&gt;Relying Party&lt;/font&gt;&lt;/b&gt;" style="text;html=1;align=center;verticalAlign=middle;whiteSpace=wrap;rounded=0;" vertex="1" parent="1">
          <mxGeometry x="510" y="305" width="60" height="35" as="geometry" />
        </mxCell>
        <mxCell id="lks8lBvvTtwoYbfCfUkM-15" value="&lt;font style=&quot;font-size: 14px;&quot;&gt;[Manage]&lt;/font&gt;" style="text;html=1;align=center;verticalAlign=middle;whiteSpace=wrap;rounded=0;" vertex="1" parent="1">
          <mxGeometry x="350" y="110" width="60" height="30" as="geometry" />
        </mxCell>
        <mxCell id="lks8lBvvTtwoYbfCfUkM-17" value="&lt;font style=&quot;font-size: 14px;&quot;&gt;[Issue]&lt;/font&gt;" style="text;html=1;align=center;verticalAlign=middle;whiteSpace=wrap;rounded=0;" vertex="1" parent="1">
          <mxGeometry x="220" y="210" width="60" height="30" as="geometry" />
        </mxCell>
        <mxCell id="lks8lBvvTtwoYbfCfUkM-18" value="&lt;font style=&quot;font-size: 14px;&quot;&gt;[Trust]&lt;/font&gt;" style="text;html=1;align=center;verticalAlign=middle;whiteSpace=wrap;rounded=0;" vertex="1" parent="1">
          <mxGeometry x="350" y="235" width="60" height="30" as="geometry" />
        </mxCell>
        <mxCell id="lks8lBvvTtwoYbfCfUkM-19" value="&lt;font style=&quot;font-size: 14px;&quot;&gt;[Share]&lt;/font&gt;" style="text;html=1;align=center;verticalAlign=middle;whiteSpace=wrap;rounded=0;" vertex="1" parent="1">
          <mxGeometry x="470" y="210" width="60" height="30" as="geometry" />
        </mxCell>
        <mxCell id="lks8lBvvTtwoYbfCfUkM-21" value="[&lt;font style=&quot;font-size: 14px;&quot;&gt;Verify&lt;/font&gt;]" style="text;html=1;align=center;verticalAlign=middle;whiteSpace=wrap;rounded=0;" vertex="1" parent="1">
          <mxGeometry x="350" y="340" width="60" height="30" as="geometry" />
        </mxCell>
        <mxCell id="lks8lBvvTtwoYbfCfUkM-23" value="&lt;font style=&quot;font-size: 14px;&quot;&gt;[Create]&lt;/font&gt;" style="text;html=1;align=center;verticalAlign=middle;whiteSpace=wrap;rounded=0;" vertex="1" parent="1">
          <mxGeometry x="200" y="370" width="60" height="30" as="geometry" />
        </mxCell>
        <mxCell id="lks8lBvvTtwoYbfCfUkM-25" value="&lt;font style=&quot;font-size: 14px;&quot;&gt;[Consume]&lt;/font&gt;" style="text;html=1;align=center;verticalAlign=middle;whiteSpace=wrap;rounded=0;" vertex="1" parent="1">
          <mxGeometry x="510" y="360" width="70" height="30" as="geometry" />
        </mxCell>
      </root>
    </mxGraphModel>
  </diagram>
</mxfile>
